<svg width="21" height="21" viewBox="0 0 21 21" fill="none" xmlns="http://www.w3.org/2000/svg">
<path fill-rule="evenodd" clip-rule="evenodd" d="M14.5412 6.2539L4.53805 10.1773C4.53805 10.1773 4.06683 10.3412 4.10268 10.6383C4.13854 10.9354 4.5278 11.0737 4.5278 11.0737L7.04268 11.9188L13.0866 8.08244C13.0866 8.08244 13.4349 7.87244 13.4246 8.08244C13.4246 8.08244 13.4861 8.11829 13.3017 8.29244C13.1173 8.46659 8.55366 12.5641 8.55366 12.5641L8.54854 12.6205L8.53829 12.6102L8.22585 15.3659C8.36415 15.4273 8.4922 15.33 8.4922 15.33L10.121 13.8498L12.6563 15.791C13.3427 16.088 13.5885 15.4683 13.5885 15.4683L15.3659 6.48951C15.3659 5.89537 14.5412 6.2539 14.5412 6.2539ZM10.5 0C4.71219 0 0 4.71219 0 10.5C0 16.2878 4.71219 21 10.5 21C16.2878 21 21 16.2878 21 10.5C21 4.71219 16.2878 0 10.5 0ZM10.5 19.4583C5.56244 19.4583 1.54171 15.4427 1.54171 10.5C1.54171 5.56244 5.55732 1.54171 10.5 1.54171C15.4376 1.54171 19.4583 5.55732 19.4583 10.5C19.4583 15.4376 15.4376 19.4583 10.5 19.4583Z" fill="#9FE870"/>
</svg>
