<svg width="21" height="22" viewBox="0 0 21 22" fill="none" xmlns="http://www.w3.org/2000/svg">
<path d="M10.3242 0.0136409C3.1084 -0.221069 0 2.55633 0 9.64577C0 14.3731 1.54367 17.34 4.98608 18.5948V21.1044C4.98608 21.9319 6.01218 22.3141 6.55683 21.6912L8.66621 19.2689C9.19581 19.2929 9.74647 19.296 10.3272 19.2779C17.5431 19.5126 20.6515 16.35 20.6515 9.64577C20.6515 2.55633 17.5431 -0.221069 10.3272 0.0136409H10.3242ZM17.182 15.7452C15.9392 17.0211 13.9351 17.6409 11.0584 17.6409C10.8388 17.6409 10.6101 17.6379 10.3784 17.6289H10.2701C10.2069 17.6289 10.1467 17.6319 10.0865 17.6319C9.91799 17.6349 9.74948 17.6379 9.59 17.6379C9.37335 17.6379 9.16271 17.6379 8.95809 17.6259L8.98517 17.6379L5.91589 21.1526C5.83164 21.2489 5.67516 21.1887 5.67516 21.0623V17.0873C5.43443 17.006 5.20574 16.9097 4.98608 16.8044C2.66305 15.6911 1.652 13.4041 1.652 9.63975C1.652 6.66977 2.23576 4.63562 3.43639 3.42295C4.62198 2.22533 6.60798 1.64457 9.50274 1.64457C9.74948 1.64457 10.0083 1.64758 10.2701 1.65661H10.3784C10.6402 1.64758 10.899 1.64457 11.1457 1.64457C14.0405 1.64457 16.0235 2.22533 17.2121 3.42295C18.4157 4.63562 18.9995 6.66977 18.9995 9.63975C18.9995 12.6097 18.4067 14.4814 17.185 15.7392L17.182 15.7452Z" fill="#9FE870"/>
<path d="M12.6743 9.07097C12.6202 9.12513 12.5419 9.15823 12.4577 9.15221C12.3072 9.14018 12.1929 9.00778 12.2049 8.85732C12.232 8.51128 12.1056 8.16824 11.8589 7.92149C11.6121 7.67475 11.2721 7.54836 10.923 7.57545C10.7726 7.58748 10.6402 7.47314 10.6281 7.32268C10.6161 7.17223 10.7305 7.03983 10.8809 7.02779C11.3894 6.98867 11.8859 7.17223 12.247 7.53332C12.6081 7.89441 12.7917 8.39091 12.7526 8.89945C12.7466 8.96866 12.7165 9.02884 12.6743 9.07097Z" fill="#9FE870"/>
<path d="M13.9833 9.49526C13.9291 9.54943 13.8509 9.58253 13.7666 9.57651C13.6162 9.56447 13.5018 9.43207 13.5139 9.28162C13.5771 8.46314 13.2822 7.65971 12.7014 7.07896C12.1207 6.4982 11.3172 6.20331 10.4987 6.2665C10.3483 6.27854 10.2159 6.16419 10.2039 6.01374C10.1918 5.86328 10.3062 5.73088 10.4566 5.71884C11.4376 5.64061 12.3975 5.99568 13.0926 6.69078C13.7877 7.38589 14.1428 8.34579 14.0645 9.32675C14.0585 9.39596 14.0284 9.45615 13.9863 9.49827L13.9833 9.49526Z" fill="#9FE870"/>
<path d="M15.3374 9.96473C15.2832 10.0189 15.205 10.052 15.1207 10.046C14.9703 10.0339 14.8559 9.90154 14.868 9.75109C14.9703 8.43611 14.4948 7.14821 13.565 6.2184C12.6322 5.28558 11.3443 4.81014 10.0323 4.91546C9.88189 4.9275 9.74949 4.81315 9.73745 4.6627C9.72541 4.51224 9.83976 4.37984 9.99022 4.36781C11.4647 4.25045 12.909 4.78607 13.9562 5.83023C15.0034 6.8774 15.536 8.32176 15.4186 9.79622C15.4126 9.86543 15.3825 9.92561 15.3404 9.96774L15.3374 9.96473Z" fill="#9FE870"/>
<path d="M13.3514 11.6769L13.216 11.5776C12.9572 11.391 12.6111 11.3609 12.3132 11.5024C11.9491 11.6739 11.8137 12.1072 11.4526 12.2908C11.251 12.3931 11.0103 12.3961 10.7967 12.3419C10.4145 12.2456 10.0594 12.0199 9.74046 11.8003C9.45158 11.6017 9.17174 11.382 8.91897 11.1383C8.67223 10.8855 8.45557 10.6087 8.25697 10.3168C8.0343 9.99782 7.81163 9.64575 7.71533 9.26059C7.66117 9.04393 7.66418 8.80622 7.76649 8.60461C7.95004 8.24652 8.38335 8.1081 8.55487 7.74701C8.6963 7.45212 8.66621 7.10607 8.47965 6.84428L8.38035 6.70887C7.97713 6.19131 7.57391 5.67374 7.17069 5.15317C6.88181 4.78305 6.34318 4.68676 5.97306 5.05688L5.28097 5.74897C4.9259 6.10404 4.77243 6.6186 4.89581 7.09404C4.9259 7.2144 4.96502 7.33476 5.00413 7.45212C5.11547 7.78312 5.25991 8.10509 5.40735 8.41804C6.03926 9.7601 6.80057 11.063 7.83871 12.1253C8.88888 13.1995 10.2791 14.0089 11.6362 14.6469C11.9521 14.7943 12.2711 14.9358 12.6021 15.0501C12.7195 15.0922 12.8428 15.1283 12.9662 15.1614C13.4417 15.2848 13.9532 15.1283 14.3083 14.7763L15.0004 14.0842C15.3705 13.7141 15.2772 13.1754 14.9071 12.8866C14.3865 12.4833 13.8689 12.0801 13.3514 11.6769Z" fill="#9FE870"/>
</svg>
