<svg width="19" height="12" viewBox="0 0 19 12" fill="none" xmlns="http://www.w3.org/2000/svg">
<path d="M10.3485 11.7619C3.85697 11.7619 0.154279 7.34678 0 0H3.25172C3.35853 5.39234 5.75578 7.67644 7.65459 8.14739V0H10.7164V4.6506C12.5915 4.45045 14.5615 2.33119 15.2261 0H18.2879C18.0375 1.20902 17.5383 2.35377 16.8216 3.36265C16.1048 4.37152 15.1859 5.22282 14.1224 5.86329C15.3096 6.44851 16.3581 7.27684 17.1989 8.29361C18.0397 9.31038 18.6535 10.4925 19 11.7619H15.6296C15.3186 10.6593 14.6865 9.67232 13.8125 8.92462C12.9385 8.17691 11.8615 7.70176 10.7164 7.5587V11.7619H10.3485Z" fill="#9FE870"/>
</svg>
