<svg width="20" height="20" viewBox="0 0 20 20" fill="none" xmlns="http://www.w3.org/2000/svg">
<path d="M17.0899 2.90669C15.2088 1.03496 12.7081 0 10.047 0C4.55878 0 0.08852 4.44811 0.08852 9.90917C0.08852 11.6543 0.547717 13.3609 1.41632 14.8637L0 20L5.278 18.6237C6.73305 19.411 8.37067 19.8293 10.0359 19.8293H10.0415C15.5297 19.8293 20 15.3812 20 9.92018C20.0055 7.27223 18.9709 4.77842 17.0899 2.90669ZM10.047 18.1558C8.55877 18.1558 7.09819 17.7594 5.83125 17.0052L5.52696 16.8291L2.39557 17.6493L3.23098 14.6105L3.03181 14.2967C2.20193 12.9865 1.76487 11.4671 1.76487 9.91467C1.76487 5.37297 5.4827 1.67905 10.047 1.67905C12.26 1.67905 14.3347 2.53785 15.9004 4.09579C17.4661 5.65373 18.3236 7.72364 18.3236 9.92568C18.3236 14.4619 14.6058 18.1558 10.047 18.1558ZM14.5837 11.9846C14.3347 11.858 13.112 11.2634 12.8852 11.1808C12.6584 11.0983 12.4924 11.0542 12.3264 11.3075C12.1604 11.5552 11.6846 12.1112 11.5408 12.2764C11.3969 12.4415 11.2531 12.4635 11.0041 12.3369C10.7552 12.2103 9.95296 11.9516 9.00137 11.1093C8.26002 10.4542 7.76209 9.63942 7.61825 9.39169C7.4744 9.14396 7.60165 9.01184 7.7289 8.88522C7.83955 8.77512 7.97786 8.59345 8.09958 8.45032C8.22129 8.30718 8.26555 8.20259 8.34854 8.03743C8.43153 7.87228 8.38727 7.72915 8.32641 7.60253C8.26555 7.47592 7.76763 6.25929 7.55739 5.76383C7.35269 5.27938 7.14799 5.34544 6.99861 5.33994C6.85476 5.33443 6.68879 5.32893 6.52281 5.32893C6.35684 5.32893 6.08575 5.38948 5.85891 5.63721C5.63208 5.88494 4.99031 6.485 4.99031 7.70162C4.99031 8.91825 5.88104 10.0963 6.00829 10.2615C6.13001 10.4266 7.76209 12.926 10.2628 13.9994C10.8548 14.2527 11.3195 14.4068 11.6791 14.5224C12.2766 14.7096 12.8188 14.6821 13.2448 14.6215C13.7206 14.55 14.7164 14.0215 14.9267 13.4434C15.1314 12.8654 15.1314 12.3699 15.0705 12.2653C14.9986 12.1718 14.8326 12.1112 14.5837 11.9846Z" fill="#9FE870"/>
</svg>
